<?xml version="1.0" encoding="UTF-8"?>
<svg xmlns="http://www.w3.org/2000/svg" xmlns:xlink="http://www.w3.org/1999/xlink" width="16px" height="16px" viewBox="0 0 16 16" version="1.1">
<g id="surface1">
<path style=" stroke:none;fill-rule:nonzero;fill:rgb(62%,50%,71%);fill-opacity:1;" d="M 3 14 C 2.734375 14 2.5 13.902344 2.300781 13.699219 C 2.097656 13.5 2 13.265625 2 13 L 2 3 C 2 2.734375 2.097656 2.5 2.300781 2.300781 C 2.5 2.097656 2.734375 2 3 2 L 7.652344 2 L 7.652344 3 L 3 3 L 3 13 L 13 13 L 13 8.347656 L 14 8.347656 L 14 13 C 14 13.265625 13.902344 13.5 13.699219 13.699219 C 13.5 13.902344 13.265625 14 13 14 Z M 6.367188 10.347656 L 5.667969 9.632812 L 12.300781 3 L 8.652344 3 L 8.652344 2 L 14 2 L 14 7.347656 L 13 7.347656 L 13 3.714844 Z M 6.367188 10.347656 "/>
</g>
</svg>
