<?xml version="1.0" encoding="UTF-8"?>
<svg width="250px" height="275px" viewBox="0 0 250 275" version="1.1" xmlns="http://www.w3.org/2000/svg" xmlns:xlink="http://www.w3.org/1999/xlink">
    <!-- Generator: Sketch 43.2 (39069) - http://www.bohemiancoding.com/sketch -->
    <title>Group 17</title>
    <desc>Created with Sketch.</desc>
    <defs></defs>
    <g id="Page-1" stroke="none" stroke-width="1" fill="none" fill-rule="evenodd">
        <g id="Group-17" transform="translate(1.000000, 0.000000)">
            <g id="Group-9-Copy" transform="translate(45.000000, 0.000000)">
                <rect id="Rectangle-2" fill="#FFFFFF" x="6" y="12" width="140" height="252" rx="8"></rect>
                <path d="M73.5763359,16.352459 C75.3778626,14.5491803 78.5305344,14.5491803 80.3320611,16.352459 C81.2328244,17.2540984 81.6832061,18.3811475 81.6832061,19.7336066 C81.6832061,20.4098361 81.4580153,20.8606557 81.2328244,21.5368852 C81.0076336,22.2131148 80.5572519,22.6639344 80.1068702,23.1147541 C79.2061069,24.0163934 78.0801527,24.4672131 76.7290076,24.4672131 C76.0534351,24.4672131 75.6030534,24.2418033 74.9274809,24.0163934 C74.2519084,23.7909836 73.8015267,23.3401639 73.351145,22.8893443 C72.9007634,22.4385246 72.6755725,21.9877049 72.4503817,21.3114754 C72.2251908,20.6352459 72,20.1844262 72,19.5081967 C72,18.8319672 72.2251908,18.3811475 72.4503817,17.704918 C72.9007634,17.2540984 73.1259542,16.5778689 73.5763359,16.352459 Z" id="Shape-Copy" fill="#020203" fill-rule="nonzero" transform="translate(76.841603, 19.733607) scale(-1, 1) translate(-76.841603, -19.733607) "></path>
                <path d="M88.6984733,246 C91.4007634,246 93.4274809,248.254098 93.4274809,250.733607 C93.4274809,253.438525 91.1755725,255.467213 88.6984733,255.467213 L65.7290076,255.467213 C63.0267176,255.467213 61,253.438525 61,250.733607 C61,248.028689 63.2519084,246 65.7290076,246 L88.6984733,246 Z" id="Shape" fill="#020203" fill-rule="nonzero" transform="translate(77.213740, 250.733607) scale(-1, 1) translate(-77.213740, -250.733607) "></path>
                <path d="M141.311356,39.897541 L11.3762414,39.897541 L11.3762414,229.016393 L141.536547,229.016393 L141.536547,39.897541 L141.311356,39.897541 Z M129.826623,11.9467213 L86.8151727,11.9467213 L21.9602108,11.9467213 C18.3571574,11.9467213 14.9792948,13.75 12.9525773,16.454918 C12.0518139,18.0327869 11.3762414,20.0614754 11.3762414,22.0901639 L11.3762414,30.4303279 L86.8151727,30.4303279 L141.536547,30.4303279 L141.536547,23.6680328 C141.311356,17.1311475 136.131967,11.9467213 129.826623,11.9467213 Z M4.84570703,11.045082 C8.6739513,4.95901639 15.2044857,0.676229508 22.8609742,0.676229508 L130.727386,0.676229508 C142.43731,0.676229508 151.895325,10.1434426 151.895325,21.8647541 L151.895325,251.331967 C151.895325,256.065574 150.318989,260.57377 147.616699,263.954918 C143.788455,270.040984 137.257921,274.32377 129.601432,274.32377 L21.9602108,274.32377 C10.2502872,274.32377 0.792271911,264.856557 0.792271911,253.135246 L0.792271911,23.6680328 C0.567081072,18.9344262 2.14341695,14.6516393 4.84570703,11.045082 Z M11.3762414,238.709016 L11.3762414,251.331967 C11.3762414,257.868852 16.5556307,263.053279 23.086165,263.053279 L86.8151727,263.053279 L130.952577,263.053279 C134.555631,263.053279 137.933493,261.25 139.960211,258.545082 C140.860974,256.967213 141.311356,254.938525 141.311356,252.909836 L141.311356,238.483607 L86.8151727,238.483607 L11.3762414,238.483607 L11.3762414,238.709016 Z" id="Shape" fill="#000000" fill-rule="nonzero" transform="translate(76.333159, 137.500000) scale(-1, 1) translate(-76.333159, -137.500000) "></path>
                <rect id="Rectangle-12" fill="#9D81B5" x="11" y="39" width="131" height="191"></rect>
            </g>
            <rect id="Rectangle-15-Copy-2" fill="#F1EEF3" x="65" y="129" width="116" height="28" rx="8"></rect>
            <rect id="Rectangle-15-Copy" fill="#F1EEF3" x="65" y="90" width="116" height="28" rx="8"></rect>
            <path d="M63.7413636,79 L3.059,79 C1.36954545,79 0,80.3684821 0,83.0239643 L0,193.910714 C0,194.631518 1.36954545,196 3.059,196 L86.8500909,196 C88.5395455,196 89.9090909,194.631518 89.9090909,193.910714 L89.9090909,106.11475 C89.9090909,104.660607 89.7146364,104.192607 89.3717273,103.847875 L65.0419091,79.5369464 C64.6969091,79.1943036 64.2285455,79 63.7413636,79 Z" id="Shape" stroke="#979797" fill="#E9E9E0" fill-rule="nonzero"></path>
            <polygon id="Shape" stroke="#979797" fill="#D9D7CA" fill-rule="nonzero" points="65 79 65 103.755946 89.7751818 103.755946"></polygon>
            <path d="M86.8500909,195.517857 L3.059,195.517857 C1.36954545,195.517857 0,194.149375 0,192.461232 L0,160 L89.9090909,160 L89.9090909,192.461232 C89.9090909,194.149375 88.5395455,195.517857 86.8500909,195.517857 Z" id="Shape" stroke="#979797" fill="#C15F31" fill-rule="nonzero"></path>
            <g id="Group" transform="translate(17.000000, 167.000000)" fill-rule="nonzero" fill="#FFFFFF">
                <polygon id="Shape" points="10.247 11.7550893 15.5934545 21.9821429 11.6207273 21.9821429 8.27527273 14.0407679 7.98881818 14.0407679 4.38618182 21.9821429 0.413454545 21.9821429 5.75990909 11.7550893 0.0705454545 0.928410714 3.98681818 0.928410714 7.70236364 9.49866071 7.98881818 9.49866071 12.0200909 0.928410714 15.9363636 0.928410714"></polygon>
                <polygon id="Shape" points="36.6321818 0.9305 40.1198182 0.9305 40.1198182 21.9821429 36.6321818 21.9821429 36.6321818 7.49921429 31.9150909 19.2096607 28.8853636 19.2096607 24.139 7.49921429 24.139 21.9821429 20.6513636 21.9821429 20.6513636 0.9305 24.139 0.9305 30.3991818 15.3277679"></polygon>
                <polygon id="Shape" points="48.8953636 0.9305 48.8953636 19.3830714 58.5867273 19.3830714 58.5867273 21.9821429 45.4077273 21.9821429 45.4077273 0.9305"></polygon>
            </g>
            <path d="M19.0914318,128.714808 C18.5561591,128.714808 18.0208864,128.510058 17.6131591,128.102647 C16.7956136,127.285737 16.7956136,125.965308 17.6131591,125.148397 L30.1586136,112.612683 C30.9761591,111.795772 32.2976136,111.795772 33.1151591,112.612683 C33.9327045,113.429594 33.9327045,114.750022 33.1151591,115.566933 L20.5697045,128.102647 C20.1619773,128.510058 19.6267045,128.714808 19.0914318,128.714808 Z" id="Shape" fill="#C15F31" fill-rule="nonzero"></path>
            <path d="M31.6368864,141.714808 C31.1016136,141.714808 30.5663409,141.510058 30.1586136,141.102647 L17.6131591,128.566933 C16.7956136,127.750022 16.7956136,126.429594 17.6131591,125.612683 C18.4307045,124.795772 19.7521591,124.795772 20.5697045,125.612683 L33.1151591,138.148397 C33.9327045,138.965308 33.9327045,140.285737 33.1151591,141.102647 C32.7074318,141.510058 32.1721591,141.714808 31.6368864,141.714808 Z" id="Shape" fill="#C15F31" fill-rule="nonzero"></path>
            <path d="M57.0914318,141.714808 C56.5561591,141.714808 56.0208864,141.510058 55.6131591,141.102647 C54.7956136,140.285737 54.7956136,138.965308 55.6131591,138.148397 L68.1586136,125.612683 C68.9761591,124.795772 70.2976136,124.795772 71.1151591,125.612683 C71.9327045,126.429594 71.9327045,127.750022 71.1151591,128.566933 L58.5697045,141.102647 C58.1619773,141.510058 57.6267045,141.714808 57.0914318,141.714808 Z" id="Shape" fill="#C15F31" fill-rule="nonzero"></path>
            <path d="M69.6368864,128.714808 C69.1016136,128.714808 68.5663409,128.510058 68.1586136,128.102647 L55.6131591,115.566933 C54.7956136,114.750022 54.7956136,113.429594 55.6131591,112.612683 C56.4307045,111.795772 57.7521591,111.795772 58.5697045,112.612683 L71.1151591,125.148397 C71.9327045,125.965308 71.9327045,127.285737 71.1151591,128.102647 C70.7074318,128.510058 70.1721591,128.714808 69.6368864,128.714808 Z" id="Shape" fill="#C15F31" fill-rule="nonzero"></path>
            <path d="M38.09174,145.700173 C37.86174,145.700173 37.6254673,145.660476 37.3954673,145.578994 C36.3061037,145.194566 35.7352855,144.001583 36.1200128,142.913066 L48.6654673,107.395208 C49.0522855,106.306691 50.2399219,105.734226 51.3334673,106.120744 C52.4228309,106.505173 52.9936491,107.698155 52.6089219,108.786673 L40.0634673,144.30453 C39.7602855,145.165316 38.9531946,145.700173 38.09174,145.700173 Z" id="Shape" fill="#C15F31" fill-rule="nonzero"></path>
            <rect id="Rectangle-15" fill="#F1EEF3" x="65" y="50" width="116" height="28" rx="8"></rect>
            <g id="Group-7" transform="translate(145.000000, 78.000000)">
                <path d="M49.6004638,0.135521036 C48.5416232,0.302200647 47.280058,0.669721683 46.3975652,1.06840129 C45.0267246,1.68781877 4.94263768,25.321411 4.0982029,26.0080259 C2.98924638,26.9097476 1.24347826,29.2012168 1.37234783,29.5860065 C1.39382609,29.6505761 5.88014493,32.1984466 11.342029,35.2486084 L21.2728986,40.7937087 L21.5950725,40.23811 C21.9432464,39.6378382 22.6550435,38.86 23.2895942,38.3862395 C23.7658841,38.030356 47.535913,24.0559223 48.3908986,23.628712 C50.1521159,22.7491392 52.2528406,22.6387702 54.1037391,23.3287638 C54.749971,23.5697735 79.2317971,37.2844272 80.2069855,37.9518964 C80.4794203,38.1384725 81.0495362,38.6644142 81.4734493,39.1205307 L82.244029,39.9497994 L92.0015652,34.1449191 C97.3681159,30.952479 101.774928,28.2934887 101.794145,28.2364272 C101.90229,27.9124531 99.7891304,25.748246 98.5064638,24.8697994 C97.3338261,24.0668091 56.8797101,1.33043366 55.9158261,0.932504854 C54.125971,0.194084142 51.4084058,-0.148660194 49.6004638,0.135521036 M52.481942,34.5315858 C52.6145797,34.5664984 52.8843768,34.6472104 53.0814493,34.7114045 C53.3350435,34.7936181 53.4028696,34.7902395 53.312058,34.7001424 C53.2415942,34.6299417 52.9717971,34.5488544 52.7125507,34.5203236 C52.4533043,34.4917929 52.3493043,34.4970485 52.481942,34.5315858 M49.1373623,35.1059547 C48.4474203,35.5286602 48.4266957,35.6285178 49.1083478,35.2448544 C49.8016812,34.8548091 49.8510435,34.8198964 49.7006957,34.8247767 C49.640029,34.8270291 49.3864348,34.9535405 49.1373623,35.1059547 M54.5905797,35.3563495 C54.5905797,35.3893851 54.8072464,35.5267832 55.0721449,35.661178 C55.3374203,35.7959482 55.554087,35.879288 55.554087,35.8462524 C55.554087,35.8132168 55.3374203,35.6761942 55.0721449,35.5414239 C54.8072464,35.4066537 54.5905797,35.3233139 54.5905797,35.3563495 M46.911913,36.4206214 C46.1861739,36.850835 45.5542609,37.2949385 45.975913,37.0783301 C46.3922899,36.8647249 47.8433913,35.9859029 47.8433913,35.9476117 C47.8433913,35.8710291 47.8143768,35.8852945 46.911913,36.4206214 M55.6746667,35.9551197 C55.6746667,35.9881553 55.8374493,36.0988997 56.036029,36.2013851 C56.2349855,36.3038706 56.3977681,36.3605566 56.3977681,36.327521 C56.3977681,36.2944854 56.2349855,36.1837411 56.036029,36.0816311 C55.8374493,35.9791456 55.6746667,35.9220841 55.6746667,35.9551197 M56.517971,36.4352621 C56.517971,36.4682977 56.6807536,36.5790421 56.8797101,36.6815275 C57.0782899,36.7840129 57.2410725,36.840699 57.2410725,36.8076634 C57.2410725,36.7746278 57.0782899,36.6638835 56.8797101,36.5613981 C56.6807536,36.459288 56.517971,36.4022265 56.517971,36.4352621 M57.3616522,36.9169061 C57.3616522,36.9499417 57.5783188,37.0869644 57.8435942,37.2217346 C58.1084928,37.3565049 58.3255362,37.4398447 58.3255362,37.4068091 C58.3255362,37.3737735 58.1084928,37.2363754 57.8435942,37.1016052 C57.5783188,36.966835 57.3616522,36.8838706 57.3616522,36.9169061 M44.499942,37.8343948 C44.1521449,38.0363625 43.8672754,38.2296958 43.8672754,38.2634822 C43.8672754,38.3299288 44.9389275,37.7364142 45.1265797,37.5659806 C45.3304348,37.3801553 45.1450435,37.4597411 44.499942,37.8343948 M58.4457391,37.5156764 C58.4457391,37.548712 58.6085217,37.6594563 58.8074783,37.7619417 C59.006058,37.8644272 59.1688406,37.9211133 59.1688406,37.8880777 C59.1688406,37.8550421 59.006058,37.7442977 58.8074783,37.6418123 C58.6085217,37.5393269 58.4457391,37.4826408 58.4457391,37.5156764 M59.2894203,37.9958188 C59.2894203,38.0288544 59.4518261,38.1395987 59.6507826,38.2420841 C59.8493623,38.3445696 60.0121449,38.4012557 60.0121449,38.3682201 C60.0121449,38.3351845 59.8493623,38.2244401 59.6507826,38.1219547 C59.4518261,38.0194693 59.2894203,37.9627832 59.2894203,37.9958188 M60.1327246,38.4770874 C60.1327246,38.510123 60.3493913,38.647521 60.6146667,38.7822913 C60.8795652,38.9170615 61.0966087,39.0000259 61.0966087,38.9669903 C61.0966087,38.9339547 60.8795652,38.796932 60.6146667,38.6621618 C60.3493913,38.5273916 60.1327246,38.4440518 60.1327246,38.4770874 M42.2130725,39.1813463 C41.4873333,39.6115599 40.8554203,40.0556634 41.2770725,39.839055 C41.6934493,39.6254498 43.1445507,38.7466278 43.1445507,38.7083366 C43.1445507,38.631754 43.1155362,38.6463948 42.2130725,39.1813463 M61.2168116,39.076233 C61.2168116,39.1092686 61.3795942,39.2200129 61.5785507,39.3224984 C61.7771304,39.4246084 61.939913,39.4816699 61.939913,39.4486343 C61.939913,39.4155987 61.7771304,39.3048544 61.5785507,39.2023689 C61.3795942,39.0998835 61.2168116,39.0431974 61.2168116,39.076233 M62.1207826,39.587534 C62.1867246,39.6551068 62.6204348,39.9148867 63.0842899,40.1652816 C63.5481449,40.415301 63.8737101,40.5650874 63.8073913,40.4975146 C63.7410725,40.4299417 63.3073623,40.1701618 62.8435072,39.919767 C62.3796522,39.6697476 62.0544638,39.5199612 62.1207826,39.587534 M39.8011014,40.5951197 C39.4533043,40.7974628 39.1684348,40.9904207 39.1684348,41.0242071 C39.1684348,41.0906537 40.240087,40.4971392 40.4277391,40.3267055 C40.6315942,40.1408803 40.4462029,40.220466 39.8011014,40.5951197 M63.9882609,40.6364142 C63.9882609,40.6694498 64.1506667,40.7801942 64.3496232,40.8826796 C64.5482029,40.985165 64.7109855,41.0418511 64.7109855,41.0088155 C64.7109855,40.9761553 64.5482029,40.8650356 64.3496232,40.7629256 C64.1506667,40.6604401 63.9882609,40.6033786 63.9882609,40.6364142 M64.8918551,41.1480906 C64.9577971,41.2156634 65.3918841,41.4754434 65.8557391,41.7258382 C66.3195942,41.9758576 66.6447826,42.1252686 66.5784638,42.0580712 C66.5121449,41.9904984 66.0784348,41.730343 65.6145797,41.4803236 C65.1507246,41.2299288 64.8255362,41.0805178 64.8918551,41.1480906 M37.5142319,41.9420712 C36.7884928,42.3722848 36.1565797,42.8163883 36.5782319,42.5997799 C36.9946087,42.3861748 38.4457101,41.5073528 38.4457101,41.4694369 C38.4457101,41.392479 38.4166957,41.4071197 37.5142319,41.9420712 M66.7593333,42.1969709 C66.7593333,42.2300065 66.9217391,42.3407508 67.1206957,42.4432362 C67.3192754,42.5457217 67.482058,42.6024078 67.482058,42.5693722 C67.482058,42.5363366 67.3192754,42.4255922 67.1206957,42.3231068 C66.9217391,42.2206214 66.7593333,42.1639353 66.7593333,42.1969709 M67.6026377,42.6782395 C67.6026377,42.7112751 67.8193043,42.8486731 68.0845797,42.9834434 C68.3494783,43.1182136 68.5665217,43.201178 68.5665217,43.1681424 C68.5665217,43.1351068 68.3494783,42.9980841 68.0845797,42.8633139 C67.8193043,42.7285437 67.6026377,42.6455793 67.6026377,42.6782395 M35.1022609,43.3558447 C34.7544638,43.5581877 34.4695942,43.7511456 34.4695942,43.784932 C34.4695942,43.8513786 35.5412464,43.2578641 35.7288986,43.0874304 C35.9327536,42.9016052 35.7473623,42.9811909 35.1022609,43.3558447 M68.6871014,43.2773851 C68.6871014,43.3104207 68.8495072,43.421165 69.0484638,43.5236505 C69.2470435,43.6257605 69.4098261,43.682822 69.4098261,43.6497864 C69.4098261,43.6167508 69.2470435,43.5060065 69.0484638,43.403521 C68.8495072,43.3010356 68.6871014,43.2443495 68.6871014,43.2773851 M69.5304058,43.7575275 C69.5304058,43.7905631 69.6928116,43.9013074 69.8917681,44.0037929 C70.0907246,44.1059029 70.2531304,44.1629644 70.2531304,44.1299288 C70.2531304,44.0968932 70.0907246,43.9861489 69.8917681,43.8836634 C69.6928116,43.781178 69.5304058,43.7244919 69.5304058,43.7575275 M70.6144928,44.3885825 C70.7802899,44.506835 71.1597391,44.8176699 71.4581739,45.0793269 L72.0004058,45.554589 L71.5504928,45.0763236 C71.3033043,44.813165 70.9238551,44.5023301 70.7071884,44.3855793 C70.3269855,44.1806084 70.3235942,44.1806084 70.6144928,44.3885825 M32.2332174,45.2940583 L31.8793913,45.6841036 L32.2708986,45.3315987 C32.636029,45.0031197 32.7177971,44.9040129 32.6247246,44.9040129 C32.604,44.9040129 32.4276522,45.0793269 32.2332174,45.2940583" id="path0" fill="#3DDC84"></path>
                <path d="M50.5598261,22.9511068 C49.686,23.0779935 49.1724058,23.2386667 48.3908986,23.628712 C47.5347826,24.0566731 23.7655072,38.0307314 23.2884638,38.3866149 C22.3946667,39.0544595 21.1297101,40.6626926 21.3407246,40.8639094 C21.3716232,40.8939417 22.6441159,41.6165955 24.1683188,42.4702654 C25.6925217,43.3239353 27.9111884,44.6198317 29.0988986,45.3496181 L31.2584058,46.6770485 L31.7064348,45.9866796 C31.9528696,45.6067702 32.3635942,45.1405178 32.6194493,44.9505631 C32.8749275,44.7606084 33.1111884,44.575534 33.1443478,44.5394951 C33.3693043,44.2936052 49.7202899,34.8071327 50.1958261,34.6460841 C50.5485217,34.5270809 51.1891014,34.4411133 51.7603478,34.4369838 C52.7257391,34.4298511 52.9450435,34.4906667 54.2891304,35.1382395 C54.488087,35.2339676 58.279942,37.3489968 62.7157681,39.8379288 C70.8458551,44.4002201 71.5587826,44.8518317 72.1876812,45.8365178 C72.3617681,46.1086861 72.3625217,46.1079353 74.3498261,44.7805049 C75.4429565,44.0499676 77.6544638,42.6688544 79.2638261,41.7119482 L82.1897681,39.9715728 L81.9538841,39.6468479 C81.6486667,39.2271456 80.5370725,38.1681294 80.0724638,37.8550421 C79.1330725,37.2213592 54.6817681,23.544246 54.1044928,23.3295146 C53.4684348,23.0930097 51.9427246,22.8024466 51.4950725,22.832479 C51.3752464,22.8403625 50.9543478,22.8940453 50.5598261,22.9511068" id="path1" fill="#37BF6E"></path>
                <path d="M92.1813043,34.0499417 C86.9131014,37.1883236 82.524,39.80189 82.4282899,39.8574498 C82.2828406,39.9419159 82.3186377,40.0871974 82.6423188,40.7220065 C83.4897681,42.3854239 83.4328696,41.2817346 83.4784638,56.9672621 C83.5312174,74.9307443 83.5790725,74.5144207 81.1810435,76.8419288 C80.5988696,77.407288 64.778058,86.8584725 56.2251884,91.7503689 C55.009971,92.4456181 53.9447246,92.835288 52.8734493,92.9764401 L52.3010725,93.0518964 L52.3010725,104.447676 L52.3010725,115.843832 L52.7671884,115.843832 C53.9971014,115.843832 56.264,115.259327 57.5462899,114.611754 C58.6156812,114.071922 98.2377971,90.7495405 98.9884058,90.218343 C101.280551,88.5958447 102.967913,85.9920388 103.703449,82.941877 C103.964203,81.8599612 104.120203,36.3616828 103.872261,33.7691392 C103.672928,31.6905243 102.41513,28.3276505 101.841623,28.341165 C101.796406,28.3422913 97.4495072,30.9111845 92.1813043,34.0499417 M73.0818551,57.8674822 C73.0818551,63.0499417 73.0965507,65.1702265 73.1146377,62.5788091 C73.1327246,59.987767 73.1327246,55.7475728 73.1146377,53.1561553 C73.0965507,50.5651133 73.0818551,52.6850227 73.0818551,57.8674822" id="path2" fill="#4285F4"></path>
                <path d="M79.4318841,41.5970744 C77.9528986,42.4777735 75.7496812,43.8562589 74.5355942,44.6603754 L72.3282319,46.1222006 L72.6055652,46.6233657 C73.1052174,47.5277152 73.1447826,48.3584854 73.1425217,57.8903819 C73.1398841,67.5442848 73.112,68.0769838 72.5546957,69.2016958 C71.8994203,70.524246 71.6431884,70.6999353 62.7229275,75.9435858 C53.8870725,81.1373074 53.709971,81.2341618 52.8542319,81.351288 L52.3010725,81.4267443 L52.3010725,87.2395081 L52.3010725,93.0518964 L52.8734493,92.9764401 C53.9447246,92.835288 55.009971,92.4456181 56.2251884,91.7503689 C64.778058,86.8584725 80.5988696,77.407288 81.1810435,76.8419288 C83.5790725,74.5144207 83.5312174,74.9307443 83.4784638,56.9672621 C83.4328696,41.292246 83.4886377,42.3835469 82.6483478,40.733644 C82.1822319,39.8191586 82.609913,39.7042848 79.4318841,41.5970744" id="path3" fill="#3870B2"></path>
                <path d="M21.0837391,41.260712 C20.5388696,42.6324401 20.5644928,41.858356 20.5241739,58.2117282 C20.4842319,74.6277929 20.4785797,74.452479 21.0897681,75.6924401 C21.7386377,77.0097346 21.6078841,76.927521 35.3128986,84.6398317 C50.9317391,93.4288026 49.686,92.7887379 51.5677971,92.9899547 L52.3406377,93.0729191 L52.2611304,90.0843236 C52.2170435,88.4404272 52.1812464,85.8129709 52.1808696,84.2449061 L52.1808696,81.3940841 L51.7177681,81.3940841 C50.8070145,81.3940841 50.0232464,80.9942783 41.2107536,76.0363107 C32.1555942,70.9413204 31.6276812,70.606835 31.2033913,69.6908479 C30.9042029,69.0447767 30.8484348,48.0540324 31.1438551,47.2198835 L31.3122899,46.7446214 L28.9451594,45.2959353 C26.7487246,43.9519871 21.8912464,41.1751197 21.4243768,40.9964272 C21.2747826,40.9393657 21.1835942,41.0103172 21.0837391,41.260712" id="path4" fill="#041619"></path>
                <path d="M0.942028986,30.4122718 C-0.0305217391,32.8542783 -0.00301449275,31.9518058 0.0365507246,60.088 L0.0715942029,85.0550291 L0.356463768,85.8951845 C0.927333333,87.5792492 1.81547826,88.9029256 2.98585507,89.8140324 C3.79298551,90.442835 46.2852754,114.391016 47.514058,114.909825 C48.6508986,115.390343 49.9512754,115.701178 51.22,115.796906 L52.3010725,115.877994 L52.3010725,104.473204 L52.3010725,93.0684142 L51.5482029,92.9877023 C49.6893913,92.7891133 50.9174203,93.4205437 35.3128986,84.6398317 C21.6078841,76.927521 21.7386377,77.0097346 21.0897681,75.6924401 C20.4785797,74.452479 20.4842319,74.6277929 20.5241739,58.2117282 C20.5644928,41.7498641 20.5426377,42.3722848 21.125942,41.2074045 L21.3026667,40.8545243 L12.0790725,35.7073528 C7.00605797,32.8760518 2.49185507,30.358589 2.0475942,30.1123236 L1.24008696,29.664466 L0.942028986,30.4122718 M52.2347536,85.2352233 C52.2347536,87.3806602 52.2509565,88.258356 52.2709275,87.1858252 C52.2908986,86.1129191 52.2908986,84.3575275 52.2709275,83.2846214 C52.2509565,82.2117152 52.2347536,83.089411 52.2347536,85.2352233" id="path5" fill="#083042"></path>
                <path d="M50.5176232,34.6404531 C49.5544928,34.9103689 33.1654493,44.4899417 32.3813043,45.2415016 C30.9486667,46.6147314 30.9795652,46.3245437 30.9773043,58.4760129 C30.9754203,70.0801424 30.9407536,69.6071327 31.8601739,70.512233 C32.6277391,71.2675469 49.9117101,80.9529838 50.9758261,81.2240259 C52.917913,81.7184337 52.6903188,81.8216699 62.964087,75.7757799 C71.6646667,70.6556375 71.8357391,70.5373851 72.5091014,69.1799223 L72.963913,68.2628091 L72.963913,57.8674822 L72.963913,47.4721553 L72.5113623,46.5591715 C71.7618841,45.0485437 71.6748406,44.990356 62.3630725,39.7542136 C52.3493043,34.123521 52.3553333,34.1257735 50.5176232,34.6404531" id="path6" fill="#D6F0FF"></path>
            </g>
        </g>
    </g>
</svg>