<svg
       xmlns="http://www.w3.org/2000/svg"
      viewBox="0 0 200 242.28101">
  <g
     id="g35"
     transform="scale(6.4995439)">
    <path
       d="M 11.54139,4.71 H 3.0913899 A 3.1,3.1 0 0 0 0.00138987,7.81 3,3 0 0 0 2.9113899,10.9 H 11.60139 Z"
       fill="#073042"
       id="path4" />
    <path
       d="M 30.69139,32.26 H 3.0813899 A 3.1,3.1 0 0 1 0.00138987,29.17 V 7.79 A 3.1,3.1 0 0 0 3.0813899,10.91 H 26.19139 c 0,0 4.5,-0.39 4.5,3 z"
       fill="#4285f4"
       id="path6" />
    <path
       d="m 17.81139,21.31 a 2.78,2.78 0 0 0 -1.59,-5 h 0.09 a 2,2 0 0 1 0.49,0 v -1.72 a 0.56,0.56 0 0 0 -0.26,-0.49 0.54,0.54 0 0 0 -0.81,0.49 v 1.75 a 2.78,2.78 0 0 0 -2.32,3.19 2.75,2.75 0 0 0 1.1,1.81 L 9.4213899,32.22 H 12.74139 l 2.35,-5 a 1.21,1.21 0 0 1 2.19,0 l 2.42,5 h 3.36 z m -1.7,-0.49 a 1.72,1.72 0 0 1 -1.71,-1.73 1.72,1.72 0 0 1 2.91,-1.22 1.72,1.72 0 0 1 -1.2,2.95 z"
       fill="#3870b2"
       id="path10" />
    <path
       d="M 9.6913899,6.23 H 21.54139 V 8.4 H 9.6913899 Z"
       fill="#ffffff"
       id="path12" />
    <path
       d="m 15.19139,17.39 a 1.71,1.71 0 1 1 -1.73,1.7 1.75,1.75 0 0 1 0.51,-1.2 1.72,1.72 0 0 1 1.22,-0.5 z m 0.68,-1 v -1.8 a 0.56,0.56 0 0 0 -0.26,-0.49 0.54,0.54 0 0 0 -0.81,0.49 v 1.75 a 2.78,2.78 0 0 0 -2.32,3.19 2.75,2.75 0 0 0 1.1,1.81 L 7.1913899,35.09 a 1.5,1.5 0 0 0 0.11,1.53 1.51,1.51 0 0 0 2.63,-0.25 L 14.19139,27.22 a 1.21,1.21 0 0 1 2.19,0 l 4.37,9.1 a 1.5116878,1.5116878 0 0 0 2.72,-1.32 l -6.58,-13.69 a 2.81,2.81 0 0 0 -1,-4.91"
       fill="#073042"
       id="path14" />
    <path
       class="cls-5"
       d="m 19.79139,8.14 a 0.8,0.8 0 0 1 -0.82,-0.78 0.77,0.77 0 0 1 0.24,-0.59 0.81,0.81 0 0 1 1.14,0 0.84,0.84 0 0 1 0.24,0.56 0.8,0.8 0 0 1 -0.8,0.8 v 0 m -8.89,0 a 0.8,0.8 0 0 1 -0.81,-0.79 0.78,0.78 0 0 1 0.24,-0.58 0.8,0.8 0 0 1 1.14,-0.11 0.82,0.82 0 0 1 0.07,1.15 l -0.11,0.11 a 0.81,0.81 0 0 1 -0.57,0.23 m 9.18,-4.85 1.6,-2.78 a 0.34,0.34 0 0 0 -0.1,-0.44 0.32,0.32 0 0 0 -0.39,0.1 l -1.67,2.83 a 10.08,10.08 0 0 0 -8.26,0 L 9.5913899,0.17 a 0.34,0.34 0 0 0 -0.29,-0.17 0.37,0.37 0 0 0 -0.29,0.17 0.34,0.34 0 0 0 0,0.34 L 10.62139,3.29 A 9.52,9.52 0 0 0 5.7013899,10.9 H 25.00139 a 9.52,9.52 0 0 0 -4.92,-7.61"
       fill="#3ddc84"
       id="path16" />
    <path
       d="m 27.92139,16.83 h -1.27 a 0.16,0.16 0 0 0 -0.11,0.17 v 0 20 a 0.16,0.16 0 0 0 0.15,0.16 h 1.31 a 2.78,2.78 0 0 0 2.77,-2.78 V 14.05 a 2.78,2.78 0 0 1 -2.78,2.78 z"
       fill="#073042"
       id="path18" />
  </g>
</svg>