<?xml version="1.0" encoding="UTF-8"?>
<svg width="695px" height="597px" viewBox="0 0 695 597" version="1.1" xmlns="http://www.w3.org/2000/svg" xmlns:xlink="http://www.w3.org/1999/xlink">
    <!-- Generator: Sketch 43.2 (39069) - http://www.bohemiancoding.com/sketch -->
    <title>Group 12</title>
    <desc>Created with Sketch.</desc>
    <defs>
        <rect id="path-1" x="0" y="0" width="356.235234" height="508.725033" rx="8"></rect>
        <rect id="path-2" x="41" y="123" width="271.465377" height="42.1304375" rx="8"></rect>
        <rect id="path-3" x="41" y="230" width="271.465377" height="42.1304375" rx="8"></rect>
        <rect id="path-4" x="42" y="448.917394" width="172.56721" height="41" rx="8"></rect>
        <rect id="path-5" x="338" y="88" width="356.235234" height="508.725033" rx="8"></rect>
        <rect id="path-6" x="380" y="210" width="271.465377" height="42.1304375" rx="8"></rect>
        <rect id="path-7" x="380" y="317" width="271.465377" height="42.1304375" rx="8"></rect>
        <rect id="path-8" x="381" y="536.917394" width="172.56721" height="41" rx="8"></rect>
    </defs>
    <g id="Page-1" stroke="none" stroke-width="1" fill="none" fill-rule="evenodd">
        <g id="Group-12">
            <g id="Rectangle-8">
                <use fill="#FFFFFF" fill-rule="evenodd" xlink:href="#path-1"></use>
                <rect stroke="#000000" stroke-width="8" x="4" y="4" width="348.235234" height="500.725033" rx="8"></rect>
            </g>
            <rect id="Rectangle-9" fill="#2918A6" x="7" y="5.54155703" width="342.5" height="64.2489172"></rect>
            <text id="Lorem-Ipsum" font-family="Arial-BoldMT, Arial" font-size="36" font-weight="bold" fill="#FFFFFF">
                <tspan x="39.5216693" y="47">Lorem Ipsum</tspan>
            </text>
            <text id="Dolor-sit-amet" font-family="ArialMT, Arial" font-size="20" font-weight="normal" fill="#000000">
                <tspan x="46.8836578" y="106">Dolor sit amet</tspan>
            </text>
            <g id="Rectangle-10">
                <use fill="#F4F1F1" fill-rule="evenodd" xlink:href="#path-2"></use>
                <rect stroke="#979797" stroke-width="1" x="41.5" y="123.5" width="270.465377" height="41.1304375" rx="8"></rect>
            </g>
            <text id="Consectetur-adipisci" font-family="ArialMT, Arial" font-size="20" font-weight="normal" fill="#000000">
                <tspan x="53.3437858" y="209">Consectetur adipiscing elit</tspan>
            </text>
            <g id="Rectangle-10">
                <use fill="#F4F1F1" fill-rule="evenodd" xlink:href="#path-3"></use>
                <rect stroke="#979797" stroke-width="1" x="41.5" y="230.5" width="270.465377" height="41.1304375" rx="8"></rect>
            </g>
            <path d="M241.009165,262.804893 L241.009165,237.52663" id="Line" stroke="#4A4A4A" stroke-width="2" stroke-linecap="square"></path>
            <text id="Mauris-ullamcorper" font-family="ArialMT, Arial" font-size="20" font-weight="normal" fill="#000000">
                <tspan x="64.2591908" y="259">Mauris ullamcorper</tspan>
            </text>
            <text id="Elementum-rhoncus" font-family="ArialMT, Arial" font-size="20" font-weight="normal" fill="#9B9B9B">
                <tspan x="63.8850182" y="151">Elementum rhoncus</tspan>
            </text>
            <g id="Rectangle-11">
                <use fill="#C19FDF" fill-rule="evenodd" xlink:href="#path-4"></use>
                <rect stroke="#000000" stroke-width="5" x="44.5" y="451.417394" width="167.56721" height="36" rx="8"></rect>
            </g>
            <text id="Non-justo" font-family="Arial-BoldMT, Arial" font-size="20" font-weight="bold" fill="#000000">
                <tspan x="86.8964844" y="476">Non justo</tspan>
            </text>
            <g id="Rectangle-8">
                <use fill="#FFFFFF" fill-rule="evenodd" xlink:href="#path-5"></use>
                <rect stroke="#000000" stroke-width="8" x="342" y="92" width="348.235234" height="500.725033" rx="8"></rect>
            </g>
            <rect id="Rectangle-9" fill="#2918A6" x="345" y="93" width="342.5" height="64.2489172"></rect>
            <text id="Lorem-Ipsum" font-family="Arial-BoldMT, Arial" font-size="36" font-weight="bold" fill="#FFFFFF">
                <tspan x="377.521669" y="134">Lorem Ipsum</tspan>
            </text>
            <text id="Dolor-sit-amet" font-family="ArialMT, Arial" font-size="20" font-weight="normal" fill="#000000">
                <tspan x="385.883658" y="193">Dolor sit amet</tspan>
            </text>
            <g id="Rectangle-10">
                <use fill="#F4F1F1" fill-rule="evenodd" xlink:href="#path-6"></use>
                <rect stroke="#979797" stroke-width="1" x="380.5" y="210.5" width="270.465377" height="41.1304375" rx="8"></rect>
            </g>
            <text id="Consectetur-adipisci" font-family="ArialMT, Arial" font-size="20" font-weight="normal" fill="#000000">
                <tspan x="392.343786" y="296">Consectetur adipiscing elit</tspan>
            </text>
            <g id="Rectangle-10">
                <use fill="#F4F1F1" fill-rule="evenodd" xlink:href="#path-7"></use>
                <rect stroke="#979797" stroke-width="1" x="380.5" y="317.5" width="270.465377" height="41.1304375" rx="8"></rect>
            </g>
            <path d="M579.009165,350.804893 L579.009165,325.52663" id="Line" stroke="#4A4A4A" stroke-width="2" stroke-linecap="square"></path>
            <text id="Mauris-pulvinar-ut-v" font-family="ArialMT, Arial" font-size="20" font-weight="normal" fill="#000000">
                <tspan x="408.362706" y="346">Mauris pulvinar ut </tspan>
                <tspan x="469.500402" y="368">velit</tspan>
            </text>
            <text id="Elementum-rhoncus" font-family="ArialMT, Arial" font-size="20" font-weight="normal" fill="#9B9B9B">
                <tspan x="401.885018" y="239">Elementum rhoncus</tspan>
            </text>
            <g id="Rectangle-11">
                <use fill="#C19FDF" fill-rule="evenodd" xlink:href="#path-8"></use>
                <rect stroke="#000000" stroke-width="5" x="383.5" y="539.417394" width="167.56721" height="36" rx="8"></rect>
            </g>
            <text id="Non-justo" font-family="Arial-BoldMT, Arial" font-size="20" font-weight="bold" fill="#000000">
                <tspan x="414.896484" y="565">Non justo</tspan>
            </text>
            <g id="Group-5-Copy" transform="translate(292.000000, 232.000000)" fill="#000000">
                <g id="curved-arrow" transform="translate(0.000000, 51.506280)">
                    <path d="M37.8146481,34.8606018 L35.7321957,20.7200381 C35.6556152,20.1894353 35.795341,19.6295097 36.1607778,19.1938569 C36.8217885,18.4063307 37.9745267,18.3225513 38.7322706,19.0095423 L66.5524908,44.1964179 L66.758049,44.4184332 C67.3989069,45.2227153 67.290082,46.4179679 66.5162158,47.0826176 L38.6959956,71.0072172 C38.2942839,71.343731 37.7609073,71.5084971 37.2140957,71.4079619 C36.2279537,71.2236472 35.5709736,70.2406358 35.7483179,69.217131 L37.8227092,57.2324901 C35.4070644,56.9406585 32.7724263,56.3151058 30.0612076,55.3670024 C22.9862436,52.8969069 15.2878875,48.1885055 9.46239488,41.3576931 C3.57913105,34.4598571 -0.405742333,25.4102873 0.0335879415,14.3234821 C0.190779508,10.2853157 0.940462362,5.98184804 2.40220958,1.4284385 C2.58224094,0.69117992 3.18413685,0.1089132 3.95397247,0.0139632307 C4.95354961,-0.1089132 5.86042403,0.633930674 5.97731007,1.67139872 C7.58012664,15.6458 12.7661048,23.7486628 19.1773711,28.4528752 C24.9074739,32.6586003 31.6976121,34.2266711 37.8146481,34.8606018 L37.8146481,34.8606018 Z" id="Shape"></path>
                </g>
                <g id="curved-arrow-copy" transform="translate(54.806517, 36.311494) scale(-1, -1) translate(-54.806517, -36.311494) translate(20.806517, 0.311494)">
                    <path d="M37.8146481,34.8606018 L35.7321957,20.7200381 C35.6556152,20.1894353 35.795341,19.6295097 36.1607778,19.1938569 C36.8217885,18.4063307 37.9745267,18.3225513 38.7322706,19.0095423 L66.5524908,44.1964179 L66.758049,44.4184332 C67.3989069,45.2227153 67.290082,46.4179679 66.5162158,47.0826176 L38.6959956,71.0072172 C38.2942839,71.343731 37.7609073,71.5084971 37.2140957,71.4079619 C36.2279537,71.2236472 35.5709736,70.2406358 35.7483179,69.217131 L37.8227092,57.2324901 C35.4070644,56.9406585 32.7724263,56.3151058 30.0612076,55.3670024 C22.9862436,52.8969069 15.2878875,48.1885055 9.46239488,41.3576931 C3.57913105,34.4598571 -0.405742333,25.4102873 0.0335879415,14.3234821 C0.190779508,10.2853157 0.940462362,5.98184804 2.40220958,1.4284385 C2.58224094,0.69117992 3.18413685,0.1089132 3.95397247,0.0139632307 C4.95354961,-0.1089132 5.86042403,0.633930674 5.97731007,1.67139872 C7.58012664,15.6458 12.7661048,23.7486628 19.1773711,28.4528752 C24.9074739,32.6586003 31.6976121,34.2266711 37.8146481,34.8606018 L37.8146481,34.8606018 Z" id="Shape"></path>
                </g>
            </g>
            <path d="M585.783154,312.834641 C586.060588,312.478242 586.335981,312.121843 586.613414,311.767672 C585.244607,310.137147 583.981878,308.381883 582.488633,306.902828 C576.707412,301.18931 569.802177,297.598592 562.299237,295.845555 C527.666988,287.746392 497.834743,297.921578 472.778024,324.909878 C469.616099,328.320169 467.174278,332.848661 465.311803,337.310329 C460.681114,348.407696 462.594588,358.605157 470.162806,367.526265 C474.263108,372.357696 479.360946,375.761305 485.099328,377.262635 C493.306051,379.40771 501.651491,381.477051 510.03161,382.163118 C532.275237,383.985207 553.896679,380.481361 574.206432,370.021057 C579.634742,367.225553 584.881496,363.487821 589.367348,359.135301 C597.329278,351.414811 597.971862,340.63152 590.944231,331.904204 C587.290678,327.36903 582.600831,323.524377 577.796746,320.45712 C563.241695,311.168476 547.397395,308.090082 530.669796,310.355442 C528.962357,310.589328 527.069282,311.077149 525.549518,310.513594 C524.162352,310.00127 522.424313,308.361836 522.208079,306.96297 C521.989804,305.555195 523.089337,303.207418 524.264349,302.396611 C526.016667,301.187082 528.311612,300.781679 530.429081,300.347318 C548.111378,296.727642 564.492185,301.320732 580.230407,309.876531 C582.074523,310.878902 583.932919,311.850089 585.783154,312.834641 Z M591.725532,318.30759 C593.316694,319.759915 595.13429,321.103093 596.603055,322.804897 C608.846841,336.98066 608.240976,355.143634 594.860937,367.987356 C591.144146,371.558026 586.952046,374.792346 582.529432,377.191355 C551.501776,394.020061 519.037995,397.187555 485.503239,388.480287 C478.461327,386.651516 472.053841,383.125395 466.425616,378.042257 C453.673882,366.519438 449.908132,348.957887 456.67465,332.472215 C460.307803,323.615705 465.905428,316.394174 472.676026,310.288617 C496.106904,289.154168 522.9853,279.912301 553.268374,283.338185 C563.753722,284.525438 573.690324,288.176298 582.421315,294.787496 C586.125866,297.591909 589.583583,301.013338 592.514993,304.748843 C596.458218,309.782976 596.127746,312.429237 591.725532,318.30759 L591.725532,318.30759 Z" id="Fill-20" fill="#EA4242" transform="translate(529.361100, 337.912795) rotate(-6.000000) translate(-529.361100, -337.912795) "></path>
            <path d="M646.446742,334.144448 C648.999379,334.656771 651.58985,335.053265 654.06682,335.815067 C656.588301,336.588007 658.005938,338.490286 657.649859,341.216737 C657.291556,343.938733 655.551222,345.448973 652.809418,345.431153 C650.692977,345.41556 648.556507,345.203948 646.460095,344.872052 C638.058869,343.537784 629.679899,342.043136 621.269771,340.755646 C614.092565,339.655264 611.791408,335.930897 614.996114,329.306334 C619.013124,321.002242 623.437399,312.896397 627.777105,304.750456 C629.110173,302.244527 631.219938,300.502628 634.153134,301.963863 C636.930546,303.347136 637.26882,305.835245 636.104889,308.650796 C634.940957,311.457436 633.935036,314.328674 632.410575,318.367118 C634.669448,317.353609 636.087085,316.928158 637.273271,316.150763 C644.802105,311.225777 652.275301,306.218374 659.779654,301.255521 C661.157232,300.346704 662.496977,299.270825 664.014761,298.707269 C666.611908,297.74722 669.358163,297.67594 670.842565,300.529358 C672.329193,303.382776 670.815859,305.27169 668.329987,306.953447 C658.526703,313.582464 648.830242,320.369634 639.100399,327.110027 C637.578163,328.165858 636.098212,329.279604 634.598232,330.364393 C634.682801,330.867806 634.769595,331.368992 634.854163,331.872406" id="Fill-21" fill="#EA4242" transform="translate(642.505909, 321.770406) rotate(13.000000) translate(-642.505909, -321.770406) "></path>
            <path d="M575.164303,248.574248 C577.03594,246.885809 578.887548,245.172867 580.788116,243.51784 C582.931263,241.648974 585.012097,239.682098 587.317705,238.031526 C589.514263,236.458916 591.855479,236.715078 593.742695,238.730959 C595.683322,240.804754 595.400685,243.083479 593.842842,245.219645 C593.010509,246.360121 591.953401,247.342445 590.949705,248.349272 C583.921607,255.417105 576.85345,262.447072 569.852058,269.539408 C564.237146,275.230652 559.521332,274.562404 557.295842,267.015659 C554.816646,258.613557 553.192038,249.948611 551.411646,241.354945 C550.864175,238.710911 551.27144,236.000053 554.558489,235.075644 C557.313646,234.300476 559.074009,235.732754 560.39595,239.735558 C561.039116,241.686841 561.608842,243.664855 562.657048,247.088511 C563.883293,244.489027 564.704499,243.214901 565.105087,241.818264 C567.326126,234.062135 569.433665,226.272593 571.603518,218.498644 C572.240009,216.217692 572.69846,213.836502 573.695479,211.718157 C574.759263,209.461707 576.708793,207.828955 579.437244,208.682085 C582.544028,209.651044 583.067018,212.105741 582.334832,214.994798 C580.178332,223.50382 578.021832,232.012841 575.867558,240.521863 C575.246646,242.978787 574.636861,245.435711 574.022626,247.894863 C574.403185,248.11984 574.783744,248.347044 575.164303,248.574248" id="Fill-22" fill="#EA4242" transform="translate(573.157196, 240.883046) rotate(4.000000) translate(-573.157196, -240.883046) "></path>
            <path d="M599.376161,397.855001 C601.172132,402.842356 602.576416,406.606819 603.876102,410.409148 C604.485887,412.19337 605.126828,414.017686 605.3427,415.87096 C605.605308,418.149685 604.837514,420.562059 602.32271,420.704619 C600.524514,420.807084 598.4192,419.74457 596.876936,418.621913 C595.895494,417.902433 595.628436,416.142714 595.143279,414.812901 C592.693014,408.137106 590.2472,401.463538 587.859249,394.767696 C585.553642,388.301285 587.932691,383.042175 594.457828,381.727955 C602.329387,380.14198 610.354504,379.304443 618.319534,378.204061 C619.476789,378.043682 620.945612,377.78752 621.809102,378.322119 C623.460416,379.344538 625.527896,380.654303 626.070916,382.293738 C626.941083,384.917724 624.975975,386.980382 622.443367,387.445928 C618.75573,388.127541 614.959044,388.22555 609.9962,388.682186 C611.736534,390.054322 612.571093,390.963139 613.599269,391.479917 C619.094004,394.24869 624.662181,396.877131 630.152465,399.657042 C631.610161,400.394342 633.297083,401.236334 634.111612,402.517142 C634.881632,403.722216 635.242161,405.858381 634.672436,407.056772 C634.116063,408.223978 632.130926,409.404549 630.820112,409.35109 C628.806044,409.273127 626.787524,408.250708 624.849122,407.442128 C618.083632,404.622123 611.369328,401.686288 604.59271,398.893012 C603.370916,398.389599 601.955504,398.349504 599.376161,397.855001" id="Fill-24" fill="#EA4242"></path>
        </g>
    </g>
</svg>