<?xml version="1.0" encoding="UTF-8"?>
<svg width="914px" height="674px" viewBox="0 0 914 674" version="1.1" xmlns="http://www.w3.org/2000/svg" xmlns:xlink="http://www.w3.org/1999/xlink">
    <!-- Generator: Sketch 43.2 (39069) - http://www.bohemiancoding.com/sketch -->
    <title>Group 16</title>
    <desc>Created with Sketch.</desc>
    <defs></defs>
    <g id="Page-1" stroke="none" stroke-width="1" fill="none" fill-rule="evenodd">
        <g id="Group-16">
            <g id="Group-5-Copy" transform="translate(383.000000, 275.000000)" fill="#000000">
                <g id="curved-arrow" transform="translate(0.000000, 51.506280)">
                    <path d="M37.8146481,34.8606018 L35.7321957,20.7200381 C35.6556152,20.1894353 35.795341,19.6295097 36.1607778,19.1938569 C36.8217885,18.4063307 37.9745267,18.3225513 38.7322706,19.0095423 L66.5524908,44.1964179 L66.758049,44.4184332 C67.3989069,45.2227153 67.290082,46.4179679 66.5162158,47.0826176 L38.6959956,71.0072172 C38.2942839,71.343731 37.7609073,71.5084971 37.2140957,71.4079619 C36.2279537,71.2236472 35.5709736,70.2406358 35.7483179,69.217131 L37.8227092,57.2324901 C35.4070644,56.9406585 32.7724263,56.3151058 30.0612076,55.3670024 C22.9862436,52.8969069 15.2878875,48.1885055 9.46239488,41.3576931 C3.57913105,34.4598571 -0.405742333,25.4102873 0.0335879415,14.3234821 C0.190779508,10.2853157 0.940462362,5.98184804 2.40220958,1.4284385 C2.58224094,0.69117992 3.18413685,0.1089132 3.95397247,0.0139632307 C4.95354961,-0.1089132 5.86042403,0.633930674 5.97731007,1.67139872 C7.58012664,15.6458 12.7661048,23.7486628 19.1773711,28.4528752 C24.9074739,32.6586003 31.6976121,34.2266711 37.8146481,34.8606018 L37.8146481,34.8606018 Z" id="Shape"></path>
                </g>
                <g id="curved-arrow-copy" transform="translate(54.806517, 36.311494) scale(-1, -1) translate(-54.806517, -36.311494) translate(20.806517, 0.311494)">
                    <path d="M37.8146481,34.8606018 L35.7321957,20.7200381 C35.6556152,20.1894353 35.795341,19.6295097 36.1607778,19.1938569 C36.8217885,18.4063307 37.9745267,18.3225513 38.7322706,19.0095423 L66.5524908,44.1964179 L66.758049,44.4184332 C67.3989069,45.2227153 67.290082,46.4179679 66.5162158,47.0826176 L38.6959956,71.0072172 C38.2942839,71.343731 37.7609073,71.5084971 37.2140957,71.4079619 C36.2279537,71.2236472 35.5709736,70.2406358 35.7483179,69.217131 L37.8227092,57.2324901 C35.4070644,56.9406585 32.7724263,56.3151058 30.0612076,55.3670024 C22.9862436,52.8969069 15.2878875,48.1885055 9.46239488,41.3576931 C3.57913105,34.4598571 -0.405742333,25.4102873 0.0335879415,14.3234821 C0.190779508,10.2853157 0.940462362,5.98184804 2.40220958,1.4284385 C2.58224094,0.69117992 3.18413685,0.1089132 3.95397247,0.0139632307 C4.95354961,-0.1089132 5.86042403,0.633930674 5.97731007,1.67139872 C7.58012664,15.6458 12.7661048,23.7486628 19.1773711,28.4528752 C24.9074739,32.6586003 31.6976121,34.2266711 37.8146481,34.8606018 L37.8146481,34.8606018 Z" id="Shape"></path>
                </g>
            </g>
            <rect id="Rectangle-2" fill="#FFFFFF" x="14" y="28" width="344.473684" height="620.378182" rx="8"></rect>
            <path d="M177.878616,38.3295082 C182.31132,33.8901639 190.068552,33.8901639 194.501256,38.3295082 C196.717607,40.5491803 197.825783,43.3237705 197.825783,46.6532787 C197.825783,48.3180328 197.271695,49.4278689 196.717607,51.092623 C196.163519,52.757377 195.055344,53.8672131 193.947168,54.9770492 C191.730816,57.1967213 188.960376,58.3065574 185.635848,58.3065574 C183.973584,58.3065574 182.865408,57.7516393 181.203144,57.1967213 C179.54088,56.6418033 178.432704,55.5319672 177.324528,54.4221311 C176.216352,53.3122951 175.662264,52.202459 175.108176,50.5377049 C174.554088,48.8729508 174,47.7631148 174,46.0983607 C174,44.4336066 174.554088,43.3237705 175.108176,41.6590164 C176.216352,40.5491803 176.77044,38.8844262 177.878616,38.3295082 Z" id="Shape-Copy" fill="#020203" fill-rule="nonzero" transform="translate(185.912892, 46.653279) scale(-1, 1) translate(-185.912892, -46.653279) "></path>
            <path d="M214.152822,604 C220.801878,604 225.78867,609.54918 225.78867,615.653279 C225.78867,622.312295 220.24779,627.306557 214.152822,627.306557 L157.635848,627.306557 C150.986792,627.306557 146,622.312295 146,615.653279 C146,608.994262 151.54088,604 157.635848,604 L214.152822,604 Z" id="Shape" fill="#020203" fill-rule="nonzero" transform="translate(185.894335, 615.653279) scale(-1, 1) translate(-185.894335, -615.653279) "></path>
            <path d="M345.803263,96.5557377 L26.0944943,96.5557377 L26.0944943,562.131967 L346.357351,562.131967 L346.357351,96.5557377 L345.803263,96.5557377 Z M317.544776,27.7459016 L211.71397,27.7459016 L52.1366297,27.7459016 C43.2712219,27.7459016 34.9599021,32.1852459 29.9731102,38.8442623 C27.7567582,42.7286885 26.0944943,47.7229508 26.0944943,52.7172131 L26.0944943,73.2491803 L211.71397,73.2491803 L346.357351,73.2491803 L346.357351,56.6016393 C345.803263,40.5090164 333.059239,27.7459016 317.544776,27.7459016 Z M10.0259426,25.5262295 C19.4454384,10.5434426 35.5139901,0 54.3529816,0 L319.761127,0 C348.573703,0 371.845398,23.3065574 371.845398,52.1622951 L371.845398,617.068852 C371.845398,628.722131 367.966782,639.820492 361.317726,648.144262 C351.898231,663.127049 335.829679,673.670492 316.990688,673.670492 L52.1366297,673.670492 C23.3240543,673.670492 0.0523588805,650.363934 0.0523588805,621.508197 L0.0523588805,56.6016393 C-0.501729107,44.9483607 3.3768868,34.404918 10.0259426,25.5262295 Z M26.0944943,585.993443 L26.0944943,617.068852 C26.0944943,633.161475 38.838518,645.92459 54.9070696,645.92459 L211.71397,645.92459 L320.315215,645.92459 C329.180623,645.92459 337.491943,641.485246 342.478735,634.82623 C344.695087,630.941803 345.803263,625.947541 345.803263,620.953279 L345.803263,585.438525 L211.71397,585.438525 L26.0944943,585.438525 L26.0944943,585.993443 Z" id="Shape" fill="#000000" fill-rule="nonzero" transform="translate(185.922699, 336.835246) scale(-1, 1) translate(-185.922699, -336.835246) "></path>
            <rect id="Rectangle-12" fill="#E8E1ED" x="25" y="94" width="322.328947" height="470.207273"></rect>
            <circle id="Oval" fill="#9D81B5" cx="186" cy="160" r="53"></circle>
            <rect id="Rectangle-13" fill="#9D81B5" x="41" y="476" width="290" height="53" rx="26"></rect>
            <text id="Login" font-family="Arial-BoldMT, Arial" font-size="20" font-weight="bold" fill="#FFFFFF">
                <tspan x="158.288086" y="509">Login</tspan>
            </text>
            <text id="Forgot-password?" font-family="ArialMT, Arial" font-size="12" font-weight="normal" fill="#4A4A4A">
                <tspan x="234.476562" y="548">Forgot password?</tspan>
            </text>
            <g id="testify" transform="translate(156.000000, 134.000000)" fill-rule="nonzero" fill="#FFFFFF">
                <path d="M30.0004094,20.8347914 C32.4647287,20.8347914 34.5004708,21.693958 36.2147799,23.4122913 C37.929089,25.1306246 38.7862436,27.2785413 38.7862436,29.6412496 C38.7862436,32.0039579 37.929089,34.1518745 36.2147799,35.8702078 C34.5004708,37.5885411 32.3575844,38.4477078 30.0004094,38.4477078 C27.6432344,38.4477078 25.500348,37.5885411 23.7860389,35.8702078 C22.0717298,34.1518745 21.2145752,32.0039579 21.2145752,29.6412496 C21.2145752,27.2785413 22.0717298,25.1306246 23.7860389,23.4122913 C25.500348,21.693958 27.53609,20.8347914 30.0004094,20.8347914 Z M51.6435619,8.05468738 C53.7864483,8.05468738 55.715046,8.8064582 57.2150665,10.3099998 C58.715087,11.8135415 59.4650972,13.7466665 59.4650972,15.8945831 L59.4650972,43.4953119 C59.4650972,45.6432285 58.715087,47.5763535 57.2150665,49.0798951 C55.715046,50.5834368 53.7864483,51.3352076 51.6435619,51.3352076 L8.3572569,51.3352076 C6.21437052,51.3352076 4.28577277,50.5834368 2.7857523,49.0798951 C1.28573183,47.5763535 0.535721596,45.6432285 0.535721596,43.4953119 L0.535721596,15.8945831 C0.535721596,13.7466665 1.28573183,11.8135415 2.7857523,10.3099998 C4.28577277,8.8064582 6.21437052,8.05468738 8.3572569,8.05468738 L15.2144933,8.05468738 L16.8216581,3.86624994 C17.2502354,2.89968746 17.8931013,2.0405208 18.9645445,1.28874998 C20.0359877,0.536979159 21.1074309,0.214791663 22.1788741,0.214791663 L37.929089,0.214791663 C39.0005322,0.214791663 40.0719754,0.536979159 41.1434186,1.28874998 C42.2148618,2.0405208 42.8577277,2.89968746 43.286305,3.86624994 L44.8934698,8.05468738 L51.6435619,8.05468738 L51.6435619,8.05468738 Z M30.0004094,43.4953119 C33.7504606,43.4953119 37.0719345,42.099166 39.7505424,39.4142703 C42.4291504,36.7293745 43.8220266,33.5074995 43.8220266,29.6412496 C43.8220266,25.7749996 42.4291504,22.5531247 39.7505424,19.8682289 C37.0719345,17.1833331 33.8576049,15.7871873 30.0004094,15.7871873 C26.2503582,15.7871873 22.9288843,17.1833331 20.2502763,19.8682289 C17.5716684,22.5531247 16.1787922,25.7749996 16.1787922,29.6412496 C16.1787922,33.5074995 17.5716684,36.7293745 20.2502763,39.4142703 C22.9288843,42.099166 26.2503582,43.4953119 30.0004094,43.4953119 Z" id="XMLID_7_"></path>
            </g>
            <rect id="Rectangle-14" fill="#FFFFFF" x="41" y="267" width="290" height="82" rx="22"></rect>
            <rect id="Rectangle-14-Copy" fill="#FFFFFF" x="41" y="370" width="290" height="82" rx="22"></rect>
            <text id="Email-address" font-family="ArialMT, Arial" font-size="14" font-weight="normal" fill="#4A4A4A">
                <tspan x="58.1484375" y="290">Email address</tspan>
            </text>
            <text id="Password" font-family="ArialMT, Arial" font-size="14" font-weight="normal" fill="#4A4A4A">
                <tspan x="58.265625" y="393">Password</tspan>
            </text>
            <text id="•-•-•-•-•-•-•-•" font-family="ArialMT, Arial" font-size="24" font-weight="normal" fill="#4A4A4A">
                <tspan x="58.0527344" y="429">• • • • • • • •</tspan>
            </text>
            <text id="help@testify.dev" font-family="ArialMT, Arial" font-size="24" font-weight="normal" fill="#4A4A4A">
                <tspan x="58" y="325">help@testify.dev</tspan>
            </text>
            <path d="M297.666667,428.666667 C299.244444,428.666667 300.583333,428.116667 301.683333,427.016667 C302.783333,425.916667 303.333333,424.577778 303.333333,423 C303.333333,421.422222 302.783333,420.083333 301.683333,418.983333 C300.583333,417.883333 299.244444,417.333333 297.666667,417.333333 C296.088889,417.333333 294.75,417.883333 293.65,418.983333 C292.55,420.083333 292,421.422222 292,423 C292,424.577778 292.55,425.916667 293.65,427.016667 C294.75,428.116667 296.088889,428.666667 297.666667,428.666667 Z M297.666667,426.733333 C296.622222,426.733333 295.738889,426.372222 295.016667,425.65 C294.294444,424.927778 293.933333,424.044444 293.933333,423 C293.933333,421.955556 294.294444,421.072222 295.016667,420.35 C295.738889,419.627778 296.622222,419.266667 297.666667,419.266667 C298.711111,419.266667 299.594444,419.627778 300.316667,420.35 C301.038889,421.072222 301.4,421.955556 301.4,423 C301.4,424.044444 301.038889,424.927778 300.316667,425.65 C299.594444,426.372222 298.711111,426.733333 297.666667,426.733333 Z M297.666667,433 C294.422222,433 291.488889,432.077778 288.866667,430.233333 C286.244444,428.388889 284.288889,425.977778 283,423 C284.288889,420.022222 286.244444,417.611111 288.866667,415.766667 C291.488889,413.922222 294.422222,413 297.666667,413 C300.911111,413 303.844444,413.922222 306.466667,415.766667 C309.088889,417.611111 311.044444,420.022222 312.333333,423 C311.044444,425.977778 309.088889,428.388889 306.466667,430.233333 C303.844444,432.077778 300.911111,433 297.666667,433 Z M297.666667,431 C300.355556,431 302.827778,430.272222 305.083333,428.816667 C307.338889,427.361111 309.055556,425.422222 310.233333,423 C309.055556,420.577778 307.338889,418.638889 305.083333,417.183333 C302.827778,415.727778 300.355556,415 297.666667,415 C294.977778,415 292.505556,415.727778 290.25,417.183333 C287.994444,418.638889 286.266667,420.577778 285.066667,423 C286.266667,425.422222 287.994444,427.361111 290.25,428.816667 C292.505556,430.272222 294.977778,431 297.666667,431 Z" id="Shape" fill="#4A4A4A" fill-rule="nonzero"></path>
            <rect id="Rectangle-2" fill="#FFFFFF" x="497" y="28" width="344.473684" height="620.378182" rx="8"></rect>
            <path d="M660.878616,38.3295082 C665.31132,33.8901639 673.068552,33.8901639 677.501256,38.3295082 C679.717607,40.5491803 680.825783,43.3237705 680.825783,46.6532787 C680.825783,48.3180328 680.271695,49.4278689 679.717607,51.092623 C679.163519,52.757377 678.055344,53.8672131 676.947168,54.9770492 C674.730816,57.1967213 671.960376,58.3065574 668.635848,58.3065574 C666.973584,58.3065574 665.865408,57.7516393 664.203144,57.1967213 C662.54088,56.6418033 661.432704,55.5319672 660.324528,54.4221311 C659.216352,53.3122951 658.662264,52.202459 658.108176,50.5377049 C657.554088,48.8729508 657,47.7631148 657,46.0983607 C657,44.4336066 657.554088,43.3237705 658.108176,41.6590164 C659.216352,40.5491803 659.77044,38.8844262 660.878616,38.3295082 Z" id="Shape-Copy" fill="#020203" fill-rule="nonzero" transform="translate(668.912892, 46.653279) scale(-1, 1) translate(-668.912892, -46.653279) "></path>
            <path d="M697.152822,604 C703.801878,604 708.78867,609.54918 708.78867,615.653279 C708.78867,622.312295 703.24779,627.306557 697.152822,627.306557 L640.635848,627.306557 C633.986792,627.306557 629,622.312295 629,615.653279 C629,608.994262 634.54088,604 640.635848,604 L697.152822,604 Z" id="Shape" fill="#020203" fill-rule="nonzero" transform="translate(668.894335, 615.653279) scale(-1, 1) translate(-668.894335, -615.653279) "></path>
            <path d="M828.803263,96.5557377 L509.094494,96.5557377 L509.094494,562.131967 L829.357351,562.131967 L829.357351,96.5557377 L828.803263,96.5557377 Z M800.544776,27.7459016 L694.71397,27.7459016 L535.13663,27.7459016 C526.271222,27.7459016 517.959902,32.1852459 512.97311,38.8442623 C510.756758,42.7286885 509.094494,47.7229508 509.094494,52.7172131 L509.094494,73.2491803 L694.71397,73.2491803 L829.357351,73.2491803 L829.357351,56.6016393 C828.803263,40.5090164 816.059239,27.7459016 800.544776,27.7459016 Z M493.025943,25.5262295 C502.445438,10.5434426 518.51399,0 537.352982,0 L802.761127,0 C831.573703,0 854.845398,23.3065574 854.845398,52.1622951 L854.845398,617.068852 C854.845398,628.722131 850.966782,639.820492 844.317726,648.144262 C834.898231,663.127049 818.829679,673.670492 799.990688,673.670492 L535.13663,673.670492 C506.324054,673.670492 483.052359,650.363934 483.052359,621.508197 L483.052359,56.6016393 C482.498271,44.9483607 486.376887,34.404918 493.025943,25.5262295 Z M509.094494,585.993443 L509.094494,617.068852 C509.094494,633.161475 521.838518,645.92459 537.90707,645.92459 L694.71397,645.92459 L803.315215,645.92459 C812.180623,645.92459 820.491943,641.485246 825.478735,634.82623 C827.695087,630.941803 828.803263,625.947541 828.803263,620.953279 L828.803263,585.438525 L694.71397,585.438525 L509.094494,585.438525 L509.094494,585.993443 Z" id="Shape" fill="#000000" fill-rule="nonzero" transform="translate(668.922699, 336.835246) scale(-1, 1) translate(-668.922699, -336.835246) "></path>
            <rect id="Rectangle-12" fill="#E8E1ED" x="508" y="94" width="322.328947" height="470.207273"></rect>
            <circle id="Oval" fill="#9D81B5" cx="669" cy="160" r="53"></circle>
            <rect id="Rectangle-13" fill="#9D81B5" x="524" y="476" width="290" height="53" rx="26"></rect>
            <text id="Login" font-family="Arial-BoldMT, Arial" font-size="20" font-weight="bold" fill="#FFFFFF">
                <tspan x="641.288086" y="509">Login</tspan>
            </text>
            <text id="Forgot-password?" font-family="ArialMT, Arial" font-size="12" font-weight="normal" fill="#4A4A4A">
                <tspan x="717.476562" y="548">Forgot password?</tspan>
            </text>
            <g id="testify" transform="translate(639.000000, 134.000000)" fill-rule="nonzero" fill="#FFFFFF">
                <path d="M30,20.834507 C32.4642857,20.834507 34.5,21.693662 36.2142857,23.4119718 C37.9285714,25.1302817 38.7857143,27.278169 38.7857143,29.6408451 C38.7857143,32.0035211 37.9285714,34.1514085 36.2142857,35.8697183 C34.5,37.5880282 32.3571429,38.4471831 30,38.4471831 C27.6428571,38.4471831 25.5,37.5880282 23.7857143,35.8697183 C22.0714286,34.1514085 21.2142857,32.0035211 21.2142857,29.6408451 C21.2142857,27.278169 22.0714286,25.1302817 23.7857143,23.4119718 C25.5,21.693662 27.5357143,20.834507 30,20.834507 Z M51.6428571,8.05457746 C53.7857143,8.05457746 55.7142857,8.80633803 57.2142857,10.3098592 C58.7142857,11.8133803 59.4642857,13.7464789 59.4642857,15.8943662 L59.4642857,43.4947183 C59.4642857,45.6426056 58.7142857,47.5757042 57.2142857,49.0792254 C55.7142857,50.5827465 53.7857143,51.334507 51.6428571,51.334507 L8.35714286,51.334507 C6.21428571,51.334507 4.28571429,50.5827465 2.78571429,49.0792254 C1.28571429,47.5757042 0.535714286,45.6426056 0.535714286,43.4947183 L0.535714286,15.8943662 C0.535714286,13.7464789 1.28571429,11.8133803 2.78571429,10.3098592 C4.28571429,8.80633803 6.21428571,8.05457746 8.35714286,8.05457746 L15.2142857,8.05457746 L16.8214286,3.86619718 C17.25,2.89964789 17.8928571,2.04049296 18.9642857,1.28873239 C20.0357143,0.536971831 21.1071429,0.214788732 22.1785714,0.214788732 L37.9285714,0.214788732 C39,0.214788732 40.0714286,0.536971831 41.1428571,1.28873239 C42.2142857,2.04049296 42.8571429,2.89964789 43.2857143,3.86619718 L44.8928571,8.05457746 L51.6428571,8.05457746 L51.6428571,8.05457746 Z M30,43.4947183 C33.75,43.4947183 37.0714286,42.0985915 39.75,39.4137324 C42.4285714,36.7288732 43.8214286,33.5070423 43.8214286,29.6408451 C43.8214286,25.7746479 42.4285714,22.5528169 39.75,19.8679577 C37.0714286,17.1830986 33.8571429,15.7869718 30,15.7869718 C26.25,15.7869718 22.9285714,17.1830986 20.25,19.8679577 C17.5714286,22.5528169 16.1785714,25.7746479 16.1785714,29.6408451 C16.1785714,33.5070423 17.5714286,36.7288732 20.25,39.4137324 C22.9285714,42.0985915 26.25,43.4947183 30,43.4947183 Z" id="XMLID_7_"></path>
            </g>
            <rect id="Rectangle-14" fill="#FFFFFF" x="524" y="267" width="290" height="82" rx="22"></rect>
            <rect id="Rectangle-14-Copy" fill="#FFFFFF" x="524" y="370" width="290" height="82" rx="22"></rect>
            <text id="Email-address" font-family="ArialMT, Arial" font-size="14" font-weight="normal" fill="#4A4A4A">
                <tspan x="541.148438" y="290">Email address</tspan>
            </text>
            <text id="Password" font-family="ArialMT, Arial" font-size="14" font-weight="normal" fill="#4A4A4A">
                <tspan x="541.265625" y="393">Password</tspan>
            </text>
            <text id="•-•-•-•-•-•-•-•" font-family="ArialMT, Arial" font-size="24" font-weight="normal" fill="#4A4A4A">
                <tspan x="541.052734" y="429">• • • • • • • •</tspan>
            </text>
            <text id="help@testify.dev" font-family="ArialMT, Arial" font-size="24" font-weight="normal" fill="#4A4A4A">
                <tspan x="541" y="325">help@testify.dev</tspan>
            </text>
            <path d="M780.666667,393.666667 C782.244444,393.666667 783.583333,393.116667 784.683333,392.016667 C785.783333,390.916667 786.333333,389.577778 786.333333,388 C786.333333,386.422222 785.783333,385.083333 784.683333,383.983333 C783.583333,382.883333 782.244444,382.333333 780.666667,382.333333 C779.088889,382.333333 777.75,382.883333 776.65,383.983333 C775.55,385.083333 775,386.422222 775,388 C775,389.577778 775.55,390.916667 776.65,392.016667 C777.75,393.116667 779.088889,393.666667 780.666667,393.666667 Z M780.666667,391.733333 C779.622222,391.733333 778.738889,391.372222 778.016667,390.65 C777.294444,389.927778 776.933333,389.044444 776.933333,388 C776.933333,386.955556 777.294444,386.072222 778.016667,385.35 C778.738889,384.627778 779.622222,384.266667 780.666667,384.266667 C781.711111,384.266667 782.594444,384.627778 783.316667,385.35 C784.038889,386.072222 784.4,386.955556 784.4,388 C784.4,389.044444 784.038889,389.927778 783.316667,390.65 C782.594444,391.372222 781.711111,391.733333 780.666667,391.733333 Z M780.666667,398 C777.422222,398 774.488889,397.077778 771.866667,395.233333 C769.244444,393.388889 767.288889,390.977778 766,388 C767.288889,385.022222 769.244444,382.611111 771.866667,380.766667 C774.488889,378.922222 777.422222,378 780.666667,378 C783.911111,378 786.844444,378.922222 789.466667,380.766667 C792.088889,382.611111 794.044444,385.022222 795.333333,388 C794.044444,390.977778 792.088889,393.388889 789.466667,395.233333 C786.844444,397.077778 783.911111,398 780.666667,398 Z M780.666667,396 C783.355556,396 785.827778,395.272222 788.083333,393.816667 C790.338889,392.361111 792.055556,390.422222 793.233333,388 C792.055556,385.577778 790.338889,383.638889 788.083333,382.183333 C785.827778,380.727778 783.355556,380 780.666667,380 C777.977778,380 775.505556,380.727778 773.25,382.183333 C770.994444,383.638889 769.266667,385.577778 768.066667,388 C769.266667,390.422222 770.994444,392.361111 773.25,393.816667 C775.505556,395.272222 777.977778,396 780.666667,396 Z" id="Shape" fill="#4A4A4A" fill-rule="nonzero"></path>
            <path d="M818.783154,362.834641 C819.060588,362.478242 819.335981,362.121843 819.613414,361.767672 C818.244607,360.137147 816.981878,358.381883 815.488633,356.902828 C809.707412,351.18931 802.802177,347.598592 795.299237,345.845555 C760.666988,337.746392 730.834743,347.921578 705.778024,374.909878 C702.616099,378.320169 700.174278,382.848661 698.311803,387.310329 C693.681114,398.407696 695.594588,408.605157 703.162806,417.526265 C707.263108,422.357696 712.360946,425.761305 718.099328,427.262635 C726.306051,429.40771 734.651491,431.477051 743.03161,432.163118 C765.275237,433.985207 786.896679,430.481361 807.206432,420.021057 C812.634742,417.225553 817.881496,413.487821 822.367348,409.135301 C830.329278,401.414811 830.971862,390.63152 823.944231,381.904204 C820.290678,377.36903 815.600831,373.524377 810.796746,370.45712 C796.241695,361.168476 780.397395,358.090082 763.669796,360.355442 C761.962357,360.589328 760.069282,361.077149 758.549518,360.513594 C757.162352,360.00127 755.424313,358.361836 755.208079,356.96297 C754.989804,355.555195 756.089337,353.207418 757.264349,352.396611 C759.016667,351.187082 761.311612,350.781679 763.429081,350.347318 C781.111378,346.727642 797.492185,351.320732 813.230407,359.876531 C815.074523,360.878902 816.932919,361.850089 818.783154,362.834641 Z M824.725532,368.30759 C826.316694,369.759915 828.13429,371.103093 829.603055,372.804897 C841.846841,386.98066 841.240976,405.143634 827.860937,417.987356 C824.144146,421.558026 819.952046,424.792346 815.529432,427.191355 C784.501776,444.020061 752.037995,447.187555 718.503239,438.480287 C711.461327,436.651516 705.053841,433.125395 699.425616,428.042257 C686.673882,416.519438 682.908132,398.957887 689.67465,382.472215 C693.307803,373.615705 698.905428,366.394174 705.676026,360.288617 C729.106904,339.154168 755.9853,329.912301 786.268374,333.338185 C796.753722,334.525438 806.690324,338.176298 815.421315,344.787496 C819.125866,347.591909 822.583583,351.013338 825.514993,354.748843 C829.458218,359.782976 829.127746,362.429237 824.725532,368.30759 L824.725532,368.30759 Z" id="Fill-20" fill="#EA4242" transform="translate(762.361100, 387.912795) rotate(-6.000000) translate(-762.361100, -387.912795) "></path>
            <path d="M802.376161,458.855001 C804.172132,463.842356 805.576416,467.606819 806.876102,471.409148 C807.485887,473.19337 808.126828,475.017686 808.3427,476.87096 C808.605308,479.149685 807.837514,481.562059 805.32271,481.704619 C803.524514,481.807084 801.4192,480.74457 799.876936,479.621913 C798.895494,478.902433 798.628436,477.142714 798.143279,475.812901 C795.693014,469.137106 793.2472,462.463538 790.859249,455.767696 C788.553642,449.301285 790.932691,444.042175 797.457828,442.727955 C805.329387,441.14198 813.354504,440.304443 821.319534,439.204061 C822.476789,439.043682 823.945612,438.78752 824.809102,439.322119 C826.460416,440.344538 828.527896,441.654303 829.070916,443.293738 C829.941083,445.917724 827.975975,447.980382 825.443367,448.445928 C821.75573,449.127541 817.959044,449.22555 812.9962,449.682186 C814.736534,451.054322 815.571093,451.963139 816.599269,452.479917 C822.094004,455.24869 827.662181,457.877131 833.152465,460.657042 C834.610161,461.394342 836.297083,462.236334 837.111612,463.517142 C837.881632,464.722216 838.242161,466.858381 837.672436,468.056772 C837.116063,469.223978 835.130926,470.404549 833.820112,470.35109 C831.806044,470.273127 829.787524,469.250708 827.849122,468.442128 C821.083632,465.622123 814.369328,462.686288 807.59271,459.893012 C806.370916,459.389599 804.955504,459.349504 802.376161,458.855001" id="Fill-24" fill="#EA4242" transform="translate(813.975709, 460.355738) rotate(28.000000) translate(-813.975709, -460.355738) "></path>
            <path d="M885.049743,366.935159 C887.602381,367.447483 890.192851,367.843976 892.669822,368.605779 C895.191302,369.378719 896.60894,371.280997 896.252861,374.007448 C895.894557,376.729444 894.154224,378.239684 891.41242,378.221864 C889.295979,378.206272 887.159508,377.99466 885.063096,377.662763 C876.661871,376.328495 868.2829,374.833848 859.872773,373.546357 C852.695567,372.445976 850.39441,368.721608 853.599116,362.097046 C857.616126,353.792953 862.0404,345.687108 866.380106,337.541168 C867.713175,335.035239 869.82294,333.29334 872.756136,334.754575 C875.533547,336.137848 875.871822,338.625957 874.707891,341.441507 C873.543959,344.248148 872.538038,347.119386 871.013577,351.15783 C873.272449,350.144321 874.690087,349.71887 875.876273,348.941475 C883.405106,344.016489 890.878302,339.009085 898.382655,334.046232 C899.760234,333.137415 901.099979,332.061536 902.617763,331.497981 C905.21491,330.537931 907.961165,330.466652 909.445567,333.32007 C910.932194,336.173487 909.418861,338.062401 906.932989,339.744158 C897.129704,346.373176 887.433243,353.160346 877.7034,359.900738 C876.181165,360.956569 874.701214,362.070316 873.201234,363.155105 C873.285802,363.658518 873.372596,364.159704 873.457165,364.663117" id="Fill-21" fill="#EA4242" transform="translate(881.108911, 354.561117) rotate(13.000000) translate(-881.108911, -354.561117) "></path>
            <path d="M796.164303,300.574248 C798.03594,298.885809 799.887548,297.172867 801.788116,295.51784 C803.931263,293.648974 806.012097,291.682098 808.317705,290.031526 C810.514263,288.458916 812.855479,288.715078 814.742695,290.730959 C816.683322,292.804754 816.400685,295.083479 814.842842,297.219645 C814.010509,298.360121 812.953401,299.342445 811.949705,300.349272 C804.921607,307.417105 797.85345,314.447072 790.852058,321.539408 C785.237146,327.230652 780.521332,326.562404 778.295842,319.015659 C775.816646,310.613557 774.192038,301.948611 772.411646,293.354945 C771.864175,290.710911 772.27144,288.000053 775.558489,287.075644 C778.313646,286.300476 780.074009,287.732754 781.39595,291.735558 C782.039116,293.686841 782.608842,295.664855 783.657048,299.088511 C784.883293,296.489027 785.704499,295.214901 786.105087,293.818264 C788.326126,286.062135 790.433665,278.272593 792.603518,270.498644 C793.240009,268.217692 793.69846,265.836502 794.695479,263.718157 C795.759263,261.461707 797.708793,259.828955 800.437244,260.682085 C803.544028,261.651044 804.067018,264.105741 803.334832,266.994798 C801.178332,275.50382 799.021832,284.012841 796.867558,292.521863 C796.246646,294.978787 795.636861,297.435711 795.022626,299.894863 C795.403185,300.11984 795.783744,300.347044 796.164303,300.574248" id="Fill-22" fill="#EA4242" transform="translate(794.157196, 292.883046) rotate(4.000000) translate(-794.157196, -292.883046) "></path>
        </g>
    </g>
</svg>