<?xml version="1.0" encoding="UTF-8"?>
<svg width="231px" height="243px" viewBox="0 0 231 243" version="1.1" xmlns="http://www.w3.org/2000/svg" xmlns:xlink="http://www.w3.org/1999/xlink">
    <!-- Generator: Sketch 43.2 (39069) - http://www.bohemiancoding.com/sketch -->
    <title>Group</title>
    <desc>Created with Sketch.</desc>
    <defs></defs>
    <g id="Page-1" stroke="none" stroke-width="1" fill="none" fill-rule="evenodd">
        <g id="Group" fill-rule="nonzero">
            <g id="Android_Studio_Icon_2021">
                <path d="M75.013771,30.6128518 L20.0926244,30.6128518 C8.99025819,30.6486659 0.00897575632,39.6590139 0.00903352108,50.7614379 C-0.148456065,55.9334399 1.75628361,60.9559526 5.30377485,64.7228762 C8.85126609,68.4897999 13.7505648,70.6921938 18.9227065,70.8450285 L75.4037436,70.8450285 L75.013771,30.6128518 Z" id="path4" fill="#073042"></path>
                <path d="M199.480037,209.675286 L20.0276289,209.675286 C8.97596937,209.604041 0.0444551329,200.643528 0.00903352108,189.591696 L0.00903352108,50.631447 C-0.0255536359,55.9752177 2.06413794,61.1138492 5.81837678,64.9168444 C9.57261563,68.7198395 14.6838568,70.8756593 20.0276289,70.9100239 L170.232089,70.9100239 C170.232089,70.9100239 199.480037,68.3752018 199.480037,90.4086556 L199.480037,209.675286 Z" id="path6" fill="#4285F4"></path>
                <path d="M115.765911,138.505281 C121.897481,133.890527 124.445141,125.906071 122.119527,118.592821 C119.793914,111.279571 113.102438,106.23316 105.431636,106.007561 L106.016595,106.007561 C107.074175,105.877024 108.143793,105.877024 109.201372,106.007561 L109.201372,94.8283455 C109.240356,93.5427401 108.597928,92.3320118 107.51149,91.643569 C106.402884,91.002015 105.03282,91.0153257 103.936887,91.6782975 C102.840954,92.3412693 102.193206,93.5486104 102.24686,94.8283455 L102.24686,106.202547 C97.4905823,106.937509 93.2240494,109.539603 90.3933393,113.431829 C87.5626293,117.324056 86.4016775,122.184754 87.1679181,126.936092 C87.8848067,131.654765 90.4591453,135.890722 94.3174164,138.700267 L61.2347373,209.415304 L82.8132237,209.415304 L98.0871518,176.917585 C99.3837864,174.159883 102.156829,172.399455 105.204152,172.399455 C108.251476,172.399455 111.024518,174.159883 112.321153,176.917585 L128.050049,209.415304 L149.888517,209.415304 L115.765911,138.505281 Z M104.716687,135.320504 C101.751759,135.303316 98.9150999,134.108993 96.8307686,132.000284 C94.7464372,129.891574 93.5851785,127.04122 93.6024665,124.076293 C93.6588034,119.623919 96.3520132,115.62952 100.458458,113.907917 C104.564903,112.186315 109.301471,113.065825 112.516139,116.146849 C115.76424,119.321766 116.768509,124.146322 115.057072,128.353606 C113.345635,132.560889 109.258736,135.314462 104.716687,135.320504 L104.716687,135.320504 Z" id="path10" fill="#3870B2"></path>
                <polygon id="path12" fill="#FFFFFF" points="62.9896141 40.4921585 140.00921 40.4921585 140.00921 54.5961688 62.9896141 54.5961688"></polygon>
                <path d="M98.7371062,113.027068 C104.866317,113.098862 109.780294,118.119381 109.720623,124.248722 C109.660952,130.378063 104.650162,135.30196 98.5207151,135.254412 C92.3912681,135.206863 87.4574699,130.205822 87.4928953,124.076293 C87.5518777,121.146547 88.7393048,118.352601 90.8076626,116.27684 C92.9142038,114.183303 95.7672168,113.014036 98.7371062,113.027068 L98.7371062,113.027068 Z M103.156796,106.527525 L103.156796,94.8283455 C103.19578,93.5427401 102.553353,92.3320118 101.466915,91.643569 C100.358308,91.002015 98.9882443,91.0153257 97.8923114,91.6782975 C96.7963784,92.3412693 96.1486297,93.5486104 96.2022841,94.8283455 L96.2022841,106.202547 C91.4460065,106.937509 87.1794736,109.539603 84.3487635,113.431829 C81.5180534,117.324056 80.3571016,122.184754 81.1233422,126.936092 C81.8402308,131.654765 84.4145695,135.890722 88.2728405,138.700267 L46.7407544,228.068995 C45.1379864,231.26417 45.4123461,235.080263 47.4557042,238.013298 C49.472486,240.957595 52.9285789,242.575062 56.4813583,242.237345 C60.0341377,241.899629 63.1235829,239.659962 64.5495046,236.388412 L92.2375623,176.917585 C93.5341969,174.159883 96.3072392,172.399455 99.3545629,172.399455 C102.401887,172.399455 105.174929,174.159883 106.471563,176.917585 L134.87457,236.063434 C137.243851,240.945026 143.121756,242.981775 148.003455,240.612716 C152.885154,238.243656 154.922169,232.365842 152.55333,227.484036 L109.786331,138.505281 C115.172659,134.230522 117.701373,127.292664 116.329039,120.554505 C114.956705,113.816346 109.91596,108.42013 103.286787,106.59252 L103.156796,106.527525 Z" id="path14" fill="#073042"></path>
                <path d="M128.635008,52.9062873 C127.255858,52.9411974 125.919368,52.4265886 124.919773,51.4757548 C123.920179,50.5249209 123.33943,49.2158149 123.305382,47.8366431 C123.247513,46.3931727 123.816217,44.9951083 124.865273,44.0019122 C126.917073,41.9697196 130.222952,41.9697196 132.274753,44.0019122 C133.23189,44.9771956 133.788498,46.2759483 133.834643,47.6416568 C133.834643,50.513336 131.506687,52.8412919 128.635008,52.8412919 L128.635008,52.8412919 M70.8540629,52.8412919 C69.4750022,52.8586379 68.1455448,52.327388 67.1582114,51.3644332 C66.170878,50.4014784 65.6065629,49.0857156 65.5894323,47.7066522 C65.5585346,46.2870727 66.1243858,44.9195991 67.1493229,43.9369168 C68.0270171,42.8444643 69.3085142,42.1525365 70.7033919,42.0179431 C72.0982697,41.8833496 73.4884222,42.3174867 74.5588029,43.2219669 C76.7300724,45.1692744 76.9328219,48.500159 75.013771,50.6964424 L74.2988211,51.4113922 C73.3082762,52.3770813 71.9774371,52.9140865 70.5940811,52.9062873 M130.259894,21.3834994 L140.659164,3.31476739 C141.197418,2.33437655 140.918335,1.1064092 140.00921,0.454968073 C139.116756,0.0463429072 138.060106,0.317278968 137.474388,1.10492246 L126.62015,19.4986317 C109.546318,11.829865 90.0077487,11.829865 72.9339169,19.4986317 L62.3396597,1.10492246 C61.9501172,0.430059784 61.2339443,0.0102342852 60.454792,0 C59.6858,0.0451692591 58.9849866,0.45599088 58.5699243,1.10492246 C58.1751735,1.78865086 58.1751735,2.63103899 58.5699243,3.31476739 L69.0341906,21.3834994 C50.7083496,31.4149193 38.6820302,50.016604 37.0564339,70.8450285 L162.497632,70.8450285 C160.872036,50.0166041 148.845717,31.4149195 130.519876,21.3834994" id="path16" fill="#3DDC84"></path>
                <path d="M181.4763,109.387324 L173.221879,109.387324 C172.75118,109.538815 172.452247,110.000803 172.506929,110.492246 L172.506929,110.492246 L172.506929,240.483124 C172.505854,241.033006 172.933053,241.488685 173.481861,241.523051 L181.996264,241.523051 C191.949957,241.487246 200.000065,233.408077 200,223.454319 L200,91.3185918 C200,101.297677 191.910353,109.387324 181.931268,109.387324 L181.4763,109.387324 Z" id="path18" fill="#073042"></path>
            </g>
            <g id="testify" transform="translate(143.000000, 0.000000)" fill="#9D81B5">
                <path d="M44,30.3125 C47.6142857,30.3125 50.6,31.5625 53.1142857,34.0625 C55.6285714,36.5625 56.8857143,39.6875 56.8857143,43.125 C56.8857143,46.5625 55.6285714,49.6875 53.1142857,52.1875 C50.6,54.6875 47.4571429,55.9375 44,55.9375 C40.5428571,55.9375 37.4,54.6875 34.8857143,52.1875 C32.3714286,49.6875 31.1142857,46.5625 31.1142857,43.125 C31.1142857,39.6875 32.3714286,36.5625 34.8857143,34.0625 C37.4,31.5625 40.3857143,30.3125 44,30.3125 Z M75.7428571,11.71875 C78.8857143,11.71875 81.7142857,12.8125 83.9142857,15 C86.1142857,17.1875 87.2142857,20 87.2142857,23.125 L87.2142857,63.28125 C87.2142857,66.40625 86.1142857,69.21875 83.9142857,71.40625 C81.7142857,73.59375 78.8857143,74.6875 75.7428571,74.6875 L12.2571429,74.6875 C9.11428571,74.6875 6.28571429,73.59375 4.08571429,71.40625 C1.88571429,69.21875 0.785714286,66.40625 0.785714286,63.28125 L0.785714286,23.125 C0.785714286,20 1.88571429,17.1875 4.08571429,15 C6.28571429,12.8125 9.11428571,11.71875 12.2571429,11.71875 L22.3142857,11.71875 L24.6714286,5.625 C25.3,4.21875 26.2428571,2.96875 27.8142857,1.875 C29.3857143,0.78125 30.9571429,0.3125 32.5285714,0.3125 L55.6285714,0.3125 C57.2,0.3125 58.7714286,0.78125 60.3428571,1.875 C61.9142857,2.96875 62.8571429,4.21875 63.4857143,5.625 L65.8428571,11.71875 L75.7428571,11.71875 L75.7428571,11.71875 Z M44,63.28125 C49.5,63.28125 54.3714286,61.25 58.3,57.34375 C62.2285714,53.4375 64.2714286,48.75 64.2714286,43.125 C64.2714286,37.5 62.2285714,32.8125 58.3,28.90625 C54.3714286,25 49.6571429,22.96875 44,22.96875 C38.5,22.96875 33.6285714,25 29.7,28.90625 C25.7714286,32.8125 23.7285714,37.5 23.7285714,43.125 C23.7285714,48.75 25.7714286,53.4375 29.7,57.34375 C33.6285714,61.25 38.5,63.28125 44,63.28125 Z" id="XMLID_7_"></path>
            </g>
        </g>
    </g>
</svg>